<svg width="511" height="511" viewBox="0 0 511 511" fill="none" xmlns="http://www.w3.org/2000/svg">
<path fill-rule="evenodd" clip-rule="evenodd" d="M15.0465 0H207.308V34.5513H34.5513V475.916H207.308V510.468H15.0465L10.031 508.015C6.35298 506.121 4.34678 504.115 0 495.421V15.0465L2.45203 10.031C4.34678 6.35298 6.35298 4.34678 10.031 2.45203L15.0465 0ZM300.373 0H495.421L500.436 2.56348C504.114 4.45823 506.121 6.35298 510.467 15.158V495.532L508.015 500.548C506.121 504.226 504.114 506.121 495.421 510.579H300.373L295.358 508.015C291.68 506.121 289.674 504.226 285.327 495.532V273.178L154.366 273.067L183.345 302.157L159.382 326.12L88.6073 255.345L159.382 184.571L183.345 208.422L154.366 237.512H285.327V15.158L287.779 10.1425C289.674 6.35298 291.68 4.45823 295.358 2.56348L300.373 0ZM320.993 474.802H474.802V35.6659H320.993V474.802Z" fill="black"/>
</svg>
