<svg width="130" height="130" viewBox="0 0 130 130" fill="none" xmlns="http://www.w3.org/2000/svg">
<path d="M76.4156 8.53125C73.06 -2.84375 56.94 -2.84375 53.5844 8.53125L52.7719 11.2937C52.2705 12.9967 51.3943 14.5659 50.2075 15.8861C49.0208 17.2064 47.5536 18.2442 45.9135 18.9236C44.2734 19.603 42.5021 19.9067 40.7294 19.8125C38.9567 19.7182 37.2275 19.2283 35.6688 18.3788L33.15 16.9975C22.7256 11.3262 11.3262 22.7256 17.0056 33.1419L18.3787 35.6687C22.0025 42.3312 18.5656 50.6269 11.2937 52.7719L8.53125 53.5844C-2.84375 56.94 -2.84375 73.06 8.53125 76.4156L11.2937 77.2281C12.9967 77.7295 14.5659 78.6057 15.8861 79.7924C17.2064 80.9792 18.2443 82.4464 18.9237 84.0865C19.6031 85.7266 19.9067 87.4979 19.8125 89.2706C19.7182 91.0433 19.2283 92.7725 18.3787 94.3312L16.9975 96.85C11.3263 107.274 22.7256 118.674 33.1419 112.994L35.6688 111.621C37.2275 110.772 38.9567 110.282 40.7294 110.188C42.5021 110.093 44.2734 110.397 45.9135 111.076C47.5536 111.756 49.0208 112.794 50.2075 114.114C51.3943 115.434 52.2705 117.003 52.7719 118.706L53.5844 121.469C56.94 132.844 73.06 132.844 76.4156 121.469L77.2281 118.706C77.7295 117.003 78.6057 115.434 79.7924 114.114C80.9792 112.794 82.4464 111.756 84.0865 111.076C85.7266 110.397 87.4979 110.093 89.2706 110.188C91.0433 110.282 92.7725 110.772 94.3312 111.621L96.85 113.003C107.274 118.674 118.674 107.274 112.994 96.8581L111.621 94.3312C110.772 92.7725 110.282 91.0433 110.188 89.2706C110.093 87.4979 110.397 85.7266 111.076 84.0865C111.756 82.4464 112.794 80.9792 114.114 79.7924C115.434 78.6057 117.003 77.7295 118.706 77.2281L121.469 76.4156C132.844 73.06 132.844 56.94 121.469 53.5844L118.706 52.7719C117.003 52.2705 115.434 51.3943 114.114 50.2076C112.794 49.0208 111.756 47.5536 111.076 45.9135C110.397 44.2735 110.093 42.5021 110.188 40.7294C110.282 38.9567 110.772 37.2275 111.621 35.6687L113.003 33.15C118.674 22.7256 107.274 11.3263 96.8581 17.0056L94.3312 18.3788C92.7725 19.2283 91.0433 19.7182 89.2706 19.8125C87.4979 19.9067 85.7266 19.603 84.0865 18.9236C82.4464 18.2442 80.9792 17.2064 79.7924 15.8861C78.6057 14.5659 77.7295 12.9967 77.2281 11.2937L76.4156 8.53125ZM65 88.8063C58.6862 88.8063 52.631 86.2981 48.1664 81.8336C43.7019 77.369 41.1938 71.3138 41.1938 65C41.1938 58.6862 43.7019 52.631 48.1664 48.1664C52.631 43.7019 58.6862 41.1938 65 41.1938C71.3117 41.1938 77.3648 43.701 81.8278 48.1641C86.2908 52.6271 88.7981 58.6802 88.7981 64.9919C88.7981 71.3035 86.2908 77.3567 81.8278 81.8197C77.3648 86.2827 71.3117 88.79 65 88.79V88.8063Z" fill="#160E16"/>
</svg>
