<svg width="130" height="130" viewBox="0 0 130 130" fill="none" xmlns="http://www.w3.org/2000/svg">
<path fill-rule="evenodd" clip-rule="evenodd" d="M23.4375 17.8841C22.7616 19.5739 22.4138 21.3852 22.4138 23.2143C22.4138 26.9084 23.8307 30.4512 26.3527 33.0633C28.8747 35.6754 32.2954 37.1429 35.8621 37.1429C39.4288 37.1429 42.8494 35.6754 45.3714 33.0633C47.8935 30.4512 49.3103 26.9084 49.3103 23.2143C49.3103 21.3852 48.9625 19.5739 48.2867 17.8841C47.6108 16.1942 46.6202 14.6587 45.3714 13.3653C44.1226 12.0719 42.6401 11.0459 41.0085 10.346C39.3769 9.64599 37.6281 9.28571 35.8621 9.28571C34.096 9.28571 32.3473 9.64599 30.7156 10.346C29.084 11.0459 27.6015 12.0719 26.3527 13.3653C25.1039 14.6587 24.1133 16.1942 23.4375 17.8841ZM20.0131 6.79931C24.2165 2.44578 29.9176 0 35.8621 0C41.8066 0 47.5076 2.44578 51.711 6.79931C55.9144 11.1528 58.2759 17.0575 58.2759 23.2143C58.2759 29.3711 55.9144 35.2757 51.711 39.6293C47.5076 43.9828 41.8066 46.4286 35.8621 46.4286C29.9176 46.4286 24.2165 43.9828 20.0131 39.6293C15.8097 35.2757 13.4483 29.3711 13.4483 23.2143C13.4483 17.0575 15.8097 11.1528 20.0131 6.79931ZM75.5149 39.2763C75.5124 39.2771 75.51 39.2778 75.5076 39.2786H75.5166L75.5149 39.2763ZM51.6145 55.7143H13.4483C9.88157 55.7143 6.46095 57.1818 3.93891 59.7939C1.41687 62.406 0 65.9488 0 69.6429V70.6829C0.015812 71.1078 0.0457146 71.5321 0.0896551 71.955C0.596734 76.4561 2.21128 80.7469 4.77862 84.4164C9.70069 91.4271 19.0248 97.5 35.8621 97.5C37.6184 97.5051 39.3742 97.4339 41.1248 97.2864C40.6048 94.3398 40.3448 91.3157 40.3448 88.2143V88.0378C38.9462 88.1555 37.452 88.2143 35.8621 88.2143C21.32 88.2143 14.9545 83.1164 12.0317 78.9471C10.3899 76.6016 9.34744 73.8641 9.00138 70.9893L8.96552 70.5436V69.6429C8.96552 68.4115 9.43781 67.2306 10.2785 66.3599C11.1192 65.4892 12.2594 65 13.4483 65H45.7241C47.3557 61.6921 49.3308 58.5785 51.6145 55.7143ZM118.183 117.761C125.749 109.925 130 99.2965 130 88.2143C130 77.132 125.749 66.5037 118.183 58.6673C110.617 50.831 100.355 46.4286 89.6552 46.4286C78.9551 46.4286 68.6932 50.831 61.1271 58.6673C53.561 66.5037 49.3103 77.132 49.3103 88.2143C49.3103 99.2965 53.561 109.925 61.1271 117.761C68.6932 125.598 78.9551 130 89.6552 130C100.355 130 110.617 125.598 118.183 117.761ZM92.825 66.3599C93.6656 67.2306 94.1379 68.4115 94.1379 69.6429V83.5714H107.586C108.775 83.5714 109.915 84.0606 110.756 84.9313C111.597 85.802 112.069 86.9829 112.069 88.2143C112.069 89.4456 111.597 90.6266 110.756 91.4973C109.915 92.368 108.775 92.8571 107.586 92.8571H94.1379V106.786C94.1379 108.017 93.6656 109.198 92.825 110.069C91.9843 110.939 90.8441 111.429 89.6552 111.429C88.4663 111.429 87.3261 110.939 86.4854 110.069C85.6447 109.198 85.1724 108.017 85.1724 106.786V92.8571H71.7241C70.5352 92.8571 69.395 92.368 68.5543 91.4973C67.7137 90.6266 67.2414 89.4456 67.2414 88.2143C67.2414 86.9829 67.7137 85.802 68.5543 84.9313C69.395 84.0606 70.5352 83.5714 71.7241 83.5714H85.1724V69.6429C85.1724 68.4115 85.6447 67.2306 86.4854 66.3599C87.3261 65.4892 88.4663 65 89.6552 65C90.8441 65 91.9843 65.4892 92.825 66.3599Z" fill="white"/>
<path d="M89.6552 37.1429C94.4462 37.1391 99.2121 37.8586 103.803 39.2786C105.867 36.5352 107.146 33.2465 107.494 29.787C120.349 39.333 123.815 40.5254 125.084 37.1429C115.561 17.3562 110.912 15.5623 102.836 15.2661C101.756 14.0547 99.984 14.247 98.6207 13.3653C91.3716 11.8473 87.4123 11.6484 80.6897 13.3653C79.3264 14.247 77.5632 14.0547 76.4836 15.2661C66.8264 18.7314 61.5755 20.9374 59.8227 37.1429C62.6946 37.7397 64.9699 36.803 71.8252 29.787C72.1731 33.2455 73.4515 36.5334 75.5149 39.2763C80.1033 37.8579 84.8667 37.1391 89.6552 37.1429Z" fill="white"/>
</svg>
