<svg width="123" height="128" viewBox="0 0 123 128" fill="none" xmlns="http://www.w3.org/2000/svg">
<path fill-rule="evenodd" clip-rule="evenodd" d="M52.7143 127.393H61.5V109.821C61.4965 106.327 60.1069 102.977 57.6362 100.507C55.1655 98.0359 51.8155 96.6464 48.3214 96.6429H30.75V127.393H39.5357V105.429H48.3214C49.4865 105.429 50.6038 105.891 51.4276 106.715C52.2515 107.539 52.7143 108.656 52.7143 109.821V127.393ZM13.2941 87.7416C16.1764 90.624 20.0844 92.2454 24.1607 92.25C28.237 92.2454 32.145 90.624 35.0273 87.7416C37.9097 84.8593 39.5311 80.9513 39.5357 76.875V70.2857H48.3214V61.5H30.75V76.875C30.75 78.6226 30.0558 80.2986 28.82 81.5343C27.5843 82.7701 25.9083 83.4643 24.1607 83.4643C22.4131 83.4643 20.7371 82.7701 19.5014 81.5343C18.2657 80.2986 17.5714 78.6226 17.5714 76.875V61.5H0V70.2857H8.78571V76.875C8.79037 80.9513 10.4117 84.8593 13.2941 87.7416ZM85.0194 39.5357H109.821C113.316 39.5392 116.666 40.9288 119.136 43.3995C121.607 45.8702 122.997 49.2202 123 52.7143V83.4643C123 85.7944 122.074 88.0291 120.427 89.6767C118.779 91.3244 116.544 92.25 114.214 92.25H109.821V127.393H101.036V83.4643H114.214V52.7143C114.214 51.5492 113.751 50.4319 112.928 49.6081C112.104 48.7843 110.986 48.3214 109.821 48.3214H85.0194C84.1409 48.319 83.2821 48.5813 82.5549 49.0742C81.8277 49.5671 81.2659 50.2677 80.9428 51.0845L73.7165 68.6384L57.463 88.9598L50.6013 83.4687L66.4464 63.6569L72.7809 47.8206C73.754 45.3712 75.4417 43.2711 77.6243 41.7936C79.8069 40.316 82.3836 39.5293 85.0194 39.5357ZM86.8807 32.1815C89.7703 34.1123 93.1676 35.1429 96.6429 35.1429C101.301 35.1371 105.767 33.2839 109.061 29.9899C112.355 26.6959 114.208 22.2299 114.214 17.5714C114.214 14.0961 113.184 10.6989 111.253 7.80927C109.322 4.91967 106.578 2.66749 103.367 1.33755C100.156 0.00761339 96.6234 -0.340359 93.2148 0.337638C89.8063 1.01564 86.6754 2.68915 84.218 5.14656C81.7606 7.60397 80.0871 10.7349 79.4091 14.1434C78.7311 17.5519 79.079 21.085 80.409 24.2957C81.7389 27.5065 83.9911 30.2508 86.8807 32.1815ZM91.7618 10.2664C93.2066 9.30099 94.9052 8.78572 96.6429 8.78572C98.973 8.78572 101.208 9.71136 102.855 11.359C104.503 13.0066 105.429 15.2413 105.429 17.5714C105.429 19.3091 104.913 21.0077 103.948 22.4525C102.983 23.8973 101.61 25.0234 100.005 25.6884C98.3996 26.3533 96.6331 26.5273 94.9288 26.1883C93.2246 25.8493 91.6591 25.0126 90.4304 23.7839C89.2017 22.5552 88.365 20.9897 88.026 19.2854C87.687 17.5812 87.8609 15.8147 88.5259 14.2093C89.1909 12.6039 90.317 11.2318 91.7618 10.2664ZM87.8571 83.4639H79.0714V127.392H87.8571V83.4639ZM17.5714 96.6424H8.78572V127.392H17.5714V96.6424Z" fill="#0D0D0D"/>
</svg>
