<svg width="30" height="30" viewBox="0 0 55 54" class="icon-links"  xmlns="http://www.w3.org/2000/svg">
<path d="M27.5 0C12.3062 0 0 12.3063 0 27.5C0 39.6688 7.87187 49.9469 18.8031 53.5906C20.1781 53.8313 20.6938 53.0063 20.6938 52.2844C20.6938 51.6313 20.6594 49.4656 20.6594 47.1625C13.75 48.4344 11.9625 45.4781 11.4125 43.9313C11.1031 43.1406 9.7625 40.7 8.59375 40.0469C7.63125 39.5312 6.25625 38.2594 8.55937 38.225C10.725 38.1906 12.2719 40.2188 12.7875 41.0438C15.2625 45.2031 19.2156 44.0344 20.7969 43.3125C21.0375 41.525 21.7594 40.3219 22.55 39.6344C16.4312 38.9469 10.0375 36.575 10.0375 26.0563C10.0375 23.0656 11.1031 20.5906 12.8562 18.6656C12.5813 17.9781 11.6187 15.1594 13.1312 11.3781C13.1312 11.3781 15.4344 10.6563 20.6938 14.1969C22.8937 13.5781 25.2313 13.2688 27.5688 13.2688C29.9063 13.2688 32.2438 13.5781 34.4438 14.1969C39.7031 10.6219 42.0063 11.3781 42.0063 11.3781C43.5187 15.1594 42.5563 17.9781 42.2812 18.6656C44.0344 20.5906 45.1 23.0313 45.1 26.0563C45.1 36.6094 38.6719 38.9469 32.5531 39.6344C33.55 40.4938 34.4094 42.1438 34.4094 44.7219C34.4094 48.4 34.375 51.3563 34.375 52.2844C34.375 53.0063 34.8906 53.8656 36.2656 53.5906C41.7257 51.749 46.4704 48.2407 49.8314 43.5601C53.1923 38.8795 55.0001 33.2623 55 27.5C55 12.3063 42.6937 0 27.5 0Z" fill="#00675E"/>
</svg>
