<svg width="30" height="30" viewBox="0 0 53 53" class="icon-links" id="meuSvg" xmlns="http://www.w3.org/2000/svg">
<path fill-rule="evenodd" clip-rule="evenodd" d="M4.15625 0.289261H48.8438C49.8548 0.281174 50.8282 0.672476 51.5523 1.37811C52.2765 2.08375 52.6929 3.04669 52.7109 4.05762V48.9256C52.6973 49.9395 52.283 50.9068 51.5583 51.6162C50.8337 52.3255 49.8577 52.7192 48.8438 52.7111H4.15625C3.14379 52.7215 2.16846 52.3303 1.44371 51.6233C0.718948 50.9162 0.303783 49.9509 0.289062 48.9385V4.07051C0.301528 3.05661 0.715703 2.08906 1.44071 1.38016C2.16571 0.671272 3.14232 0.278942 4.15625 0.289261ZM14.4484 8.23722C13.7064 7.74128 12.8339 7.47656 11.9414 7.47656C10.7456 7.47656 9.59865 7.95131 8.75266 8.79649C7.90667 9.64168 7.43083 10.7881 7.42969 11.984C7.42884 12.8765 7.69272 13.7492 8.18796 14.4917C8.6832 15.2342 9.38753 15.8132 10.2119 16.1553C11.0362 16.4975 11.9435 16.5874 12.819 16.4138C13.6944 16.2402 14.4987 15.8109 15.1302 15.1801C15.7616 14.5493 16.1917 13.7454 16.3661 12.8701C16.5406 11.9947 16.4515 11.0874 16.1101 10.2627C15.7687 9.43806 15.1905 8.73317 14.4484 8.23722ZM8.04844 19.9375H15.8301V44.9754H8.04844V19.9375ZM28.1707 19.9375H20.7113V44.9754H28.4801V32.6047C28.4801 29.3219 29.159 26.1594 33.1508 26.1594C37.1426 26.1594 37.1941 29.8934 37.1941 32.7938V44.9754H44.9758V31.2254C44.9758 24.5008 43.5148 19.3145 35.6344 19.3316C31.8488 19.3316 29.3137 21.407 28.2738 23.375H28.1707V19.9375Z" fill="#00675E"/>
</svg>
