<svg width="30" height="30" viewBox="0 0 51 51" class="icon-links" xmlns="http://www.w3.org/2000/svg">
<path fill-rule="evenodd" clip-rule="evenodd" d="M25.2132 0C39.1384 0 50.4263 11.2879 50.4263 25.2132C50.4263 39.1384 39.1384 50.4263 25.2132 50.4263C11.2879 50.4263 0 39.1384 0 25.2132C0 11.2879 11.2879 0 25.2132 0ZM36.5591 21.4312C35.556 21.4312 34.5941 21.8296 33.8848 22.5389C33.1756 23.2482 32.7771 24.2101 32.7771 25.2132C32.7771 26.2162 33.1756 27.1782 33.8848 27.8874C34.5941 28.5967 35.556 28.9951 36.5591 28.9951C37.5621 28.9951 38.5241 28.5967 39.2334 27.8874C39.9426 27.1782 40.3411 26.2162 40.3411 25.2132C40.3411 24.2101 39.9426 23.2482 39.2334 22.5389C38.5241 21.8296 37.5621 21.4312 36.5591 21.4312ZM25.2132 21.4312C24.2101 21.4312 23.2482 21.8296 22.5389 22.5389C21.8296 23.2482 21.4312 24.2101 21.4312 25.2132C21.4312 26.2162 21.8296 27.1782 22.5389 27.8874C23.2482 28.5967 24.2101 28.9951 25.2132 28.9951C26.2162 28.9951 27.1782 28.5967 27.8874 27.8874C28.5967 27.1782 28.9951 26.2162 28.9951 25.2132C28.9951 24.2101 28.5967 23.2482 27.8874 22.5389C27.1782 21.8296 26.2162 21.4312 25.2132 21.4312ZM13.8672 21.4312C12.8642 21.4312 11.9022 21.8296 11.193 22.5389C10.4837 23.2482 10.0853 24.2101 10.0853 25.2132C10.0853 26.2162 10.4837 27.1782 11.193 27.8874C11.9022 28.5967 12.8642 28.9951 13.8672 28.9951C14.8703 28.9951 15.8322 28.5967 16.5415 27.8874C17.2508 27.1782 17.6492 26.2162 17.6492 25.2132C17.6492 24.2101 17.2508 23.2482 16.5415 22.5389C15.8322 21.8296 14.8703 21.4312 13.8672 21.4312Z" fill="#00675E"/>
</svg>
