<svg width="130" height="130" viewBox="0 0 130 130" fill="none" xmlns="http://www.w3.org/2000/svg">
<path d="M115.556 117V45.5H14.4444V117H115.556ZM93.8889 0H108.333V13H115.556C119.386 13 123.06 14.3696 125.769 16.8076C128.478 19.2456 130 22.5522 130 26V117C130 124.215 123.572 130 115.556 130H14.4444C10.6135 130 6.93954 128.63 4.23068 126.192C1.52182 123.754 0 120.448 0 117V26C0 18.785 6.42778 13 14.4444 13H21.6667V0H36.1111V13H93.8889V0ZM57.7778 55.25H72.2222V74.75H93.8889V87.75H72.2222V107.25H57.7778V87.75H36.1111V74.75H57.7778V55.25Z" fill="#160E16"/>
</svg>
