<svg width="130" height="91" viewBox="0 0 130 91" fill="none" xmlns="http://www.w3.org/2000/svg">
<path d="M32.5 90.8378C23.5379 90.8378 15.8817 87.8572 9.53136 81.8959C3.18106 75.9347 0.00393939 68.6488 0 60.0381C0 52.6575 2.31439 46.0813 6.94318 40.3093C11.572 34.5373 17.6288 30.847 25.1136 29.2384C27.5758 20.5331 32.5 13.4837 39.8864 8.09024C47.2727 2.69675 55.6439 0 65 0C76.5227 0 86.2983 3.85682 94.3268 11.5705C102.355 19.2841 106.368 28.6745 106.364 39.7415C113.159 40.4985 118.798 43.3145 123.281 48.1895C127.764 53.0644 130.004 58.7645 130 65.2897C130 72.3864 127.416 78.4195 122.247 83.3891C117.079 88.3587 110.799 90.8416 103.409 90.8378H70.9091C67.6591 90.8378 64.8779 89.7269 62.5655 87.5052C60.253 85.2834 59.0948 82.6094 59.0909 79.4831V50.2447L49.6364 59.0446L41.3636 51.0963L65 28.3868L88.6364 51.0963L80.3636 59.0446L70.9091 50.2447V79.4831H103.409C107.545 79.4831 111.042 78.111 113.898 75.367C116.754 72.6229 118.182 69.2638 118.182 65.2897C118.182 61.3155 116.754 57.9564 113.898 55.2123C111.042 52.4683 107.545 51.0963 103.409 51.0963H94.5455V39.7415C94.5455 31.8878 91.6638 25.1923 85.9005 19.655C80.1371 14.1177 73.1703 11.3509 65 11.3547C56.8297 11.3585 49.8629 14.1272 44.0995 19.6607C38.3362 25.1942 35.4545 31.8878 35.4545 39.7415H32.5C26.7879 39.7415 21.9129 41.6813 17.875 45.5608C13.8371 49.4404 11.8182 54.1242 11.8182 59.6123C11.8182 65.1004 13.8371 69.7842 17.875 73.6638C21.9129 77.5433 26.7879 79.4831 32.5 79.4831H47.2727V90.8378H32.5Z" fill="black"/>
</svg>
