<svg width="130" height="130" viewBox="0 0 130 130" fill="none" xmlns="http://www.w3.org/2000/svg">
<path d="M130 99.8486V130H97.5V113.75H81.25V97.5H65V84.3604C61.8685 86.0107 58.5889 87.2591 55.1611 88.1055C51.7334 88.9518 48.2422 89.375 44.6875 89.375C40.5827 89.375 36.626 88.846 32.8174 87.7881C29.0088 86.7301 25.4541 85.2279 22.1533 83.2812C18.8525 81.3346 15.848 79.0072 13.1396 76.2988C10.4313 73.5905 8.08268 70.5648 6.09375 67.2217C4.10482 63.8786 2.60254 60.3239 1.58691 56.5576C0.571289 52.7913 0.0423177 48.8346 0 44.6875C0 40.5827 0.528971 36.626 1.58691 32.8174C2.64486 29.0088 4.14714 25.4541 6.09375 22.1533C8.04036 18.8525 10.3678 15.848 13.0762 13.1396C15.7845 10.4313 18.8102 8.08268 22.1533 6.09375C25.4964 4.10482 29.0511 2.60254 32.8174 1.58691C36.5837 0.571289 40.5404 0.0423177 44.6875 0C48.7923 0 52.749 0.528971 56.5576 1.58691C60.3662 2.64486 63.9209 4.14714 67.2217 6.09375C70.5225 8.04036 73.527 10.3678 76.2354 13.0762C78.9437 15.7845 81.2923 18.8102 83.2812 22.1533C85.2702 25.4964 86.7725 29.0511 87.7881 32.8174C88.8037 36.5837 89.3327 40.5404 89.375 44.6875C89.375 46.8457 89.2057 48.9827 88.8672 51.0986C88.5286 53.2145 88.042 55.2881 87.4072 57.3193L130 99.8486ZM32.5 44.6875C34.1927 44.6875 35.7796 44.3701 37.2607 43.7354C38.7419 43.1006 40.0326 42.2331 41.1328 41.1328C42.2331 40.0326 43.1006 38.7419 43.7354 37.2607C44.3701 35.7796 44.6875 34.1927 44.6875 32.5C44.6875 30.8073 44.3701 29.2204 43.7354 27.7393C43.1006 26.2581 42.2331 24.9674 41.1328 23.8672C40.0326 22.7669 38.7419 21.8994 37.2607 21.2646C35.7796 20.6299 34.1927 20.3125 32.5 20.3125C30.8073 20.3125 29.2204 20.6299 27.7393 21.2646C26.2581 21.8994 24.9674 22.7669 23.8672 23.8672C22.7669 24.9674 21.8994 26.2581 21.2646 27.7393C20.6299 29.2204 20.3125 30.8073 20.3125 32.5C20.3125 34.1927 20.6299 35.7796 21.2646 37.2607C21.8994 38.7419 22.7669 40.0326 23.8672 41.1328C24.9674 42.2331 26.2581 43.1006 27.7393 43.7354C29.2204 44.3701 30.8073 44.6875 32.5 44.6875Z" fill="black"/>
</svg>
