<svg width="104" height="130" viewBox="0 0 104 130" fill="none" xmlns="http://www.w3.org/2000/svg">
<path d="M0 110.5V97.5H13V52C13 43.0083 15.7083 35.0198 21.125 28.0345C26.5417 21.0492 33.5833 16.471 42.25 14.3V9.75001C42.25 7.04168 43.199 4.74068 45.097 2.84701C46.995 0.953348 49.296 0.00434811 52 1.47727e-05C54.704 -0.00431856 57.0072 0.944681 58.9095 2.84701C60.8118 4.74935 61.7587 7.05035 61.75 9.75001V14.3C70.4167 16.4667 77.4583 21.0448 82.875 28.0345C88.2917 35.0242 91 43.0127 91 52V97.5H104V110.5H0ZM52 130C48.425 130 45.3657 128.728 42.822 126.184C40.2783 123.641 39.0043 120.579 39 117H65C65 120.575 63.7282 123.636 61.1845 126.184C58.6408 128.732 55.5793 130.004 52 130Z" fill="black"/>
</svg>
