<svg width="20" height="23" viewBox="0 0 20 23" fill="none" xmlns="http://www.w3.org/2000/svg">
<path d="M6.68206 8.68154C7.84706 8.48354 8.71106 7.42254 8.84256 6.15504C8.97606 4.86604 9.27706 -0.313959 7.33256 0.015541C2.28856 0.871041 2.64256 9.36654 6.68206 8.68154ZM13.3186 8.68154C17.3571 9.36654 17.7111 0.871041 12.6671 0.015041C10.7231 -0.314459 11.0236 4.86554 11.1566 6.15454C11.2886 7.42254 12.1536 8.48354 13.3186 8.68154ZM4.61006 12.684C4.61006 12.01 4.36956 11.399 3.98206 10.9545C3.34456 10.1215 1.31806 8.43704 0.820564 8.86854C-0.217936 9.77154 -0.184436 11.994 0.441064 13.609C0.762564 14.507 1.53906 15.1385 2.44656 15.1385C3.64106 15.1385 4.61006 14.0395 4.61006 12.684ZM19.1786 8.86854C18.6821 8.43704 16.6556 10.1215 16.0181 10.9545C15.6306 11.399 15.3896 12.01 15.3896 12.684C15.3896 14.0395 16.3596 15.1385 17.5531 15.1385C18.4611 15.1385 19.2381 14.507 19.5596 13.609C20.1836 11.994 20.2181 9.77154 19.1786 8.86854ZM15.1106 16.507C13.2726 15.5905 13.3296 13.8255 12.9116 12.215C12.5791 10.9305 11.4016 9.98054 10.0001 9.98054C9.35004 9.97904 8.71706 10.1884 8.19608 10.5771C7.6751 10.9658 7.29421 11.513 7.11056 12.1365C6.66306 13.6775 6.93256 15.4715 4.92906 16.495C3.30156 17.0255 2.64256 17.7995 2.64256 19.63C2.64256 21.117 3.91906 22.709 5.56656 22.907C7.40456 23.184 8.83856 22.822 10.0001 22.16C11.1616 22.822 12.5946 23.1835 14.4356 22.907C16.0821 22.709 17.3591 21.123 17.3591 19.63C17.3586 17.7595 16.7416 17.0625 15.1106 16.507ZM12.9421 18.744H11.0366L11.0391 20.744H8.96106L8.96406 18.744H6.94206V16.744H8.96456L8.96156 14.744H11.0396L11.0371 16.744H12.9421V18.744Z" fill="black"/>
</svg>
